#!OML:ASF F:\VICON\USERDATA\INSTALL\rory3\rory3.ASF
:FULLY-SPECIFIED
:DEGREES
31
root -0.32252107832690713 18.14946972440758 11.592246607738248 6.266500793100552 -4.454996192824376 -1.5389628415621466
lfemur 8.033297454886752 1.0442033739345513 -23.51004822341533
ltibia 29.30100009179414
lfoot 18.511124772558475 -11.32409071096621
ltoes -22.919987481513537
rfemur -46.20006746845236 2.809980723803485 26.983967078806124
rtibia 61.08975913015711
rfoot 3.5456663705558107 -1.7185585452525451
rtoes -5.0330866643246885
lowerback nan -0.44403005007142715 -1.710831181228502
upperback -1.596139825865753 -0.8498424289530138 2.4139927709032456
thorax -9.640655955752592 -0.3691628839219604 3.925838258879992
lowerneck -20.854922030155667 -2.128306906712159 -2.123612443494011
upperneck 16.36441237831689 -2.8085339563411797 2.2818974831277483
head 8.423348342981495 -1.1564889721320195 0.6674788115151737
lclavicle -3.2083053174119e-15 4.381995539085196e-16
lhumerus -36.27416673350457 -19.41005154654865 95.65541880500112
lradius 122.08666380958152
lwrist 35.35415631403941
lhand -24.368188982578566 0.5125035841162344
lfingers nan
lthumb 1.7621421640545756 30.247432011465598
rclavicle -2.6958798595195407e-15 7.85554445611713e-16
rhumerus -62.98468696791862 4.974440019429202 -97.28822153883495
rradius 106.67835862501491
rwrist -12.51789871210876
rhand -15.68240147222713 nan
rfingers nan
rthumb 9.210413030310473 10.712940222446598
32
root -0.22453585067739248 18.373171486592806 13.084719012087124 6.362581456652773 -4.564892980401922 -0.8405269189609015
lfemur 10.798925628241923 -0.4574354606452017 -25.229249883375388
ltibia 27.467816588619694
lfoot 19.158376058973612 -12.104828034676633
ltoes -18.98364497874435
rfemur -45.05606246462504 2.5023586415321066 26.403989447592625
rtibia 52.041940006766595
rfoot 3.3111801286285614 -0.8459567759342859
rtoes -8.755753595306887
lowerback nan -0.719162528641434 -2.109325788863454
upperback -1.8972017958598388 -1.2804290591683714 2.442859399596311
thorax -9.684828753827436 -0.5386775629007811 4.518018016468825
lowerneck -20.58557587493521 -1.9578826451001152 -2.1675773272004792
upperneck 16.610672409235676 -2.54396082360682 2.067527285168132
head 8.453228845102137 -1.0741110596459502 0.6045470256191016
lclavicle -3.9203327093101394e-15 -6.176024243987767e-16
lhumerus -37.06912489639387 -20.44973752501308 96.12197872754554
lradius 122.06490575363215
lwrist 34.757947411381615
lhand -24.293802220460677 0.11554126515177554
lfingers nan
lthumb 1.8637826861652025 29.892928224201654
rclavicle -3.3872241024128927e-15 -3.692479315132575e-16
rhumerus -63.486551267361264 4.2608192118157024 -96.1444708090673
rradius 106.68810201215507
rwrist -11.517186748012941
rhand -15.333206347583502 nan
rfingers nan
rthumb 9.275933608800724 10.736743623274819
33
root -0.15139128537145946 18.542110176169672 14.276130351029597 6.51875235949588 -3.7464831760294532 0.1065309487167907
lfemur 13.04111113581761 -2.268948648399035 -26.916966185193345
ltibia 27.293079536994565
lfoot 18.712895998952582 -12.127624745235519
ltoes -17.86751039228594
rfemur -43.76933734838562 1.5220972204911805 25.639947990882426
rtibia 43.52215010851285
rfoot 3.100447307123649 -0.2853414720766878
rtoes -11.065191751941114
lowerback nan -1.1530830888402415 -2.4700088564653475
upperback -2.083061901514201 -1.9186364986296232 2.23516765033934
thorax -9.72986172269129 -0.8043472244386615 4.940419810348716
lowerneck -20.695531678870143 -1.9059179286992436 -2.204504900946992
upperneck 16.668876689865293 -2.4092207117689854 1.9694527847073622
head 8.482076637608381 -1.0291787405091015 0.577108998280943
lclavicle -2.2813223491777846e-15 1.9500673810791655e-15
lhumerus -37.61126269772102 -21.36261516136526 96.69031880578115
lradius 121.73616638344055
lwrist 34.42602766561503
lhand -24.56654120657987 0.15168128122466862
lfingers nan
lthumb 1.8640593945362016 30.328100987035437
rclavicle -1.2426644023357157e-15 3.1170163985494017e-15
rhumerus -63.687384450318476 3.6062610478972745 -95.08866612325062
rradius 106.71867556500584
rwrist -10.053275664085632
rhand -15.361158474137905 nan
rfingers nan
rthumb 9.488731995722238 10.565380486914353
34
root -0.13066140973459367 18.66968507390816 14.907800277579074 6.191366042036671 -2.8070013812562364 0.6684903392033057
lfemur 14.331930128524016 -4.323578869968802 -28.170635580542363
ltibia 28.570572367736453
lfoot 18.50884270726196 -11.78018668298973
ltoes -16.96239206895761
rfemur -41.741049309230704 0.5637742067885392 25.35436648105002
rtibia 36.28856864118765
rfoot 2.965800263641787 -1.094674773821036
rtoes -13.30932336782503
lowerback nan -1.4860604428265938 -2.5613011339103657
upperback -2.0740754993776602 -2.376047550003777 2.1181423829259165
thorax -9.671500246200909 -0.9944864341630536 5.174907640626336
lowerneck -20.804533232135743 -1.8861861690457329 -2.1546201973748804
upperneck 16.628395258400126 -2.3570256095148263 1.9044432542575769
head 8.476750941619956 -1.0356160847080484 0.5572694519371773
lclavicle -2.341248903457848e-15 1.905451274707338e-15
lhumerus -37.78026021413248 -22.21310527327261 97.27359791797207
lradius 121.1444559778448
lwrist 34.266696275399234
lhand -24.66739379602247 0.32821297935590565
lfingers nan
lthumb 1.7658700148207598 30.303945188452097
rclavicle -1.2601568282622175e-15 3.122478096699718e-15
rhumerus -63.63706461759653 2.7135274836850005 -94.1931389540889
rradius 106.56476589788869
rwrist -8.696478944432128
rhand -15.77162004220196 nan
rfingers nan
rthumb 9.205907827055565 10.10967437026866
35
root -0.0931835204575924 18.692222579525517 15.991550603050701 5.820306452519788 -2.7576032080555524 0.8764097972161102
lfemur 13.975243189804912 -5.225738079574717 -28.580609931062558
ltibia 31.981114301395642
lfoot 18.91798913766809 -11.943668749564257
ltoes -12.876996139205005
rfemur -39.90767397229099 0.7798034886218586 25.43847608996044
rtibia 31.56331645499443
rfoot 3.1419018151730524 -3.1272773172568185
rtoes -15.786279608999546
lowerback nan -1.5118931333582109 -2.481318227803092
upperback -1.8078073959963077 -2.4968359426534734 1.9919866080365543
thorax -9.319944502862183 -1.044252338863382 5.157552782240428
lowerneck -21.164989372398246 -2.0363234522464286 -2.262942690168483
upperneck 16.384508522866668 -2.5237393297150854 1.9569082004496696
head 8.453314860017041 -1.123138378619245 0.5589752623377237
lclavicle -4.295822914029217e-15 -1.2752330199917397e-15
lhumerus -37.63905672344058 -22.78605126519481 97.61854086431495
lradius 120.04134487131094
lwrist 34.16291637101301
lhand -24.708988980567494 0.48759341671806244
lfingers nan
lthumb 1.8327048397369725 30.56316332847721
rclavicle -3.768000986493203e-15 -9.944208025724505e-16
rhumerus -63.05770463081638 1.7743025416386882 -93.45982102206449
rradius 106.1166222811949
rwrist -7.755519737488644
rhand -15.841044462411762 nan
rfingers nan
rthumb 9.568045362251981 10.240578195080062
